<svg width="388" height="72" viewBox="0 0 388 72" fill="none" xmlns="http://www.w3.org/2000/svg">
<rect width="388" height="72" rx="8" fill="#0F0F0F" fill-opacity="0.88"/>
<path fill-rule="evenodd" clip-rule="evenodd" d="M52 36V36C52 44.285 45.285 51 37 51V51C28.715 51 22 44.285 22 36V36C22 27.715 28.715 21 37 21V21C45.285 21 52 27.715 52 36Z" stroke="white" stroke-opacity="0.62" stroke-width="1.5" stroke-linecap="round" stroke-linejoin="round"/>
<path fill-rule="evenodd" clip-rule="evenodd" d="M35.2348 31.0968L41.7048 34.9235C42.5231 35.4068 42.5231 36.5918 41.7048 37.0751L35.2348 40.9018C34.4015 41.3951 33.3481 40.7935 33.3481 39.8251V32.1735C33.3481 31.2051 34.4015 30.6034 35.2348 31.0968V31.0968Z" stroke="white" stroke-opacity="0.62" stroke-width="1.5" stroke-linecap="round" stroke-linejoin="round"/>
</svg>
